<svg version="1.1" xmlns="http://www.w3.org/2000/svg" height="1024" width="1024" viewBox="0 0 1024 1024"><g transform="rotate(180 512 512)"><path d="M512 640m-85.333333 0a85.333333 85.333333 0 1 0 170.666666 0 85.333333 85.333333 0 1 0-170.666666 0Z" fill="#FFFFFF"></path><path d="M234.666667 256m42.666666 0l85.333334 0q42.666667 0 42.666666 42.666667l0 42.666666q0 42.666667-42.666666 42.666667l-85.333334 0q-42.666667 0-42.666666-42.666667l0-42.666666q0-42.666667 42.666666-42.666667Z" fill="#2E9FF0"></path><path d="M234.666667 405.333333m42.666666 0l85.333334 0q42.666667 0 42.666666 42.666667l0 42.666667q0 42.666667-42.666666 42.666666l-85.333334 0q-42.666667 0-42.666666-42.666666l0-42.666667q0-42.666667 42.666666-42.666667Z" fill="#FECE00"></path><path d="M618.666667 405.333333m42.666666 0l85.333334 0q42.666667 0 42.666666 42.666667l0 42.666667q0 42.666667-42.666666 42.666666l-85.333334 0q-42.666667 0-42.666666-42.666666l0-42.666667q0-42.666667 42.666666-42.666667Z" fill="#2E9FF0"></path><path d="M618.666667 256m42.666666 0l85.333334 0q42.666667 0 42.666666 42.666667l0 42.666666q0 42.666667-42.666666 42.666667l-85.333334 0q-42.666667 0-42.666666-42.666667l0-42.666666q0-42.666667 42.666666-42.666667Z" fill="#FF6D00"></path><path d="M426.666667 256m42.666666 0l85.333334 0q42.666667 0 42.666666 42.666667l0 42.666666q0 42.666667-42.666666 42.666667l-85.333334 0q-42.666667 0-42.666666-42.666667l0-42.666666q0-42.666667 42.666666-42.666667Z" fill="#FF2D54"></path><path d="M213.333333 725.333333m42.666667 0l512 0q42.666667 0 42.666667 42.666667l0 0q0 42.666667-42.666667 42.666667l-512 0q-42.666667 0-42.666667-42.666667l0 0q0-42.666667 42.666667-42.666667Z" fill="#FF2D54"></path></g></svg>